<?xml version="1.0" encoding="utf-8"?>
<!-- Generator: Adobe Illustrator 16.0.0, SVG Export Plug-In . SVG Version: 6.00 Build 0)  -->
<!DOCTYPE svg PUBLIC "-//W3C//DTD SVG 1.1//EN" "http://www.w3.org/Graphics/SVG/1.1/DTD/svg11.dtd">
<svg version="1.1" id="Layer_1" xmlns="http://www.w3.org/2000/svg" xmlns:xlink="http://www.w3.org/1999/xlink" x="0px" y="0px"
	 width="120px" height="80px" viewBox="0 0 120 80" enable-background="new 0 0 120 80" xml:space="preserve">
<g>
	<g>
		<path fill="#FFB819" d="M60.716,58.998c-10.396,0-18.841-8.457-18.841-18.852c0-10.396,8.445-18.851,18.841-18.851
			c10.394,0,18.85,8.457,18.85,18.851C79.565,50.543,71.109,58.998,60.716,58.998z"/>
	</g>
	<g>
		<path fill="#FFB819" d="M60.716,14.126c-1.044,0-1.879-0.849-1.879-1.889V4.378c0-1.041,0.835-1.878,1.879-1.878
			c1.042,0,1.889,0.836,1.889,1.878v7.859C62.604,13.278,61.758,14.126,60.716,14.126z"/>
	</g>
	<g>
		<path fill="#FFB819" d="M79.482,23.707c-0.482,0-0.967-0.184-1.336-0.553c-0.738-0.739-0.738-1.931,0-2.671l6.752-6.751
			c0.738-0.726,1.931-0.726,2.658,0c0.739,0.738,0.739,1.932,0,2.673l-6.751,6.75C80.438,23.523,79.965,23.707,79.482,23.707z"/>
	</g>
	<g>
		<path fill="#FFB819" d="M38.949,23.707c-0.48,0-0.965-0.184-1.323-0.553l-6.763-6.75c-0.727-0.741-0.727-1.935,0-2.673
			c0.74-0.726,1.931-0.726,2.669,0l6.754,6.751c0.74,0.74,0.74,1.932,0,2.671C39.916,23.523,39.432,23.707,38.949,23.707z"/>
	</g>
	<g>
		<path fill="#FFB819" d="M59.216,77.5c-1.042,0-1.889-0.849-1.889-1.879v-7.857c0-1.04,0.847-1.889,1.889-1.889
			c1.042,0,1.892,0.849,1.892,1.889v7.857C61.107,76.651,60.257,77.5,59.216,77.5z"/>
	</g>
	<g>
		<path fill="#FFB819" d="M33.699,66.824c-0.472,0-0.956-0.185-1.326-0.556c-0.739-0.737-0.739-1.931,0-2.669l6.751-6.752
			c0.739-0.737,1.933-0.737,2.66,0c0.74,0.738,0.74,1.932,0,2.67l-6.751,6.751C34.663,66.64,34.182,66.824,33.699,66.824z"/>
	</g>
	<g>
		<path fill="#FFB819" d="M87.732,66.824c-0.482,0-0.965-0.185-1.336-0.556l-6.752-6.751c-0.738-0.738-0.738-1.93,0-2.67
			c0.74-0.737,1.934-0.737,2.672,0l6.752,6.752c0.738,0.738,0.738,1.93,0,2.669C88.697,66.64,88.216,66.824,87.732,66.824z"/>
	</g>
	<g>
		<path fill="#FFB819" d="M32.198,42.024h-8.477c-1.041,0-1.888-0.837-1.888-1.878c0-1.043,0.846-1.891,1.888-1.891h8.477
			c1.041,0,1.891,0.848,1.891,1.891C34.089,41.188,33.24,42.024,32.198,42.024z"/>
	</g>
	<g>
		<path fill="#FFB819" d="M96.278,42.024H86.232c-1.041,0-1.887-0.837-1.887-1.878c0-1.043,0.845-1.891,1.887-1.891h10.046
			c1.04,0,1.888,0.848,1.888,1.891C98.166,41.188,97.318,42.024,96.278,42.024z"/>
	</g>
</g>
<g>
</g>
<g>
</g>
<g>
</g>
<g>
</g>
<g>
</g>
<g>
</g>
<g>
</g>
<g>
</g>
<g>
</g>
<g>
</g>
<g>
</g>
<g>
</g>
<g>
</g>
<g>
</g>
<g>
</g>
</svg>
