<?xml version="1.0" encoding="utf-8"?>
<!-- Generator: Adobe Illustrator 16.0.0, SVG Export Plug-In . SVG Version: 6.00 Build 0)  -->
<!DOCTYPE svg PUBLIC "-//W3C//DTD SVG 1.1//EN" "http://www.w3.org/Graphics/SVG/1.1/DTD/svg11.dtd">
<svg version="1.1" id="Layer_1" xmlns="http://www.w3.org/2000/svg" xmlns:xlink="http://www.w3.org/1999/xlink" x="0px" y="0px"
	 width="120px" height="80px" viewBox="0 0 120 80" enable-background="new 0 0 120 80" xml:space="preserve">
<g>
	<path fill="#131540" stroke="#FFFFFF" stroke-width="2" stroke-miterlimit="10" d="M60.023,77.5
		C39.3,77.5,22.44,60.638,22.44,39.915c0-19.444,14.577-35.523,33.912-37.4c1.238-0.127,2.409,0.562,2.919,1.688
		c0.51,1.129,0.253,2.457-0.65,3.312c-4.716,4.438-7.308,10.425-7.308,16.859c0,12.777,10.395,23.174,23.174,23.174
		c6.971,0,13.503-3.1,17.93-8.5c0.79-0.956,2.101-1.298,3.256-0.869c1.162,0.429,1.918,1.548,1.885,2.789
		C96.99,61.451,80.5,77.5,60.023,77.5z"/>
</g>
<g>
</g>
<g>
</g>
<g>
</g>
<g>
</g>
<g>
</g>
<g>
</g>
<g>
</g>
<g>
</g>
<g>
</g>
<g>
</g>
<g>
</g>
<g>
</g>
<g>
</g>
<g>
</g>
<g>
</g>
</svg>
