<?xml version="1.0" encoding="utf-8"?>
<!-- Generator: Adobe Illustrator 16.0.0, SVG Export Plug-In . SVG Version: 6.00 Build 0)  -->
<!DOCTYPE svg PUBLIC "-//W3C//DTD SVG 1.1//EN" "http://www.w3.org/Graphics/SVG/1.1/DTD/svg11.dtd">
<svg version="1.1" id="Layer_1" xmlns="http://www.w3.org/2000/svg" xmlns:xlink="http://www.w3.org/1999/xlink" x="0px" y="0px"
	 width="120px" height="80px" viewBox="0 0 120 80" enable-background="new 0 0 120 80" xml:space="preserve">
<g>
	<g>
		<g>
			<path fill="#FFB819" d="M37.998,47.758c-7.869,0-14.262-6.402-14.262-14.271c0-7.869,6.393-14.27,14.262-14.27
				c7.867,0,14.269,6.401,14.269,14.27C52.267,41.357,45.865,47.758,37.998,47.758z"/>
		</g>
		<g>
			<path fill="#FFB819" d="M37.998,13.791c-0.79,0-1.423-0.643-1.423-1.431V6.411c0-0.788,0.633-1.422,1.423-1.422
				c0.788,0,1.43,0.634,1.43,1.422v5.949C39.428,13.148,38.786,13.791,37.998,13.791z"/>
		</g>
		<g>
			<path fill="#FFB819" d="M52.204,21.043c-0.365,0-0.731-0.14-1.011-0.419c-0.56-0.56-0.56-1.462,0-2.022l5.11-5.11
				c0.56-0.55,1.462-0.55,2.013,0c0.56,0.558,0.56,1.462,0,2.023l-5.11,5.109C52.927,20.903,52.569,21.043,52.204,21.043z"/>
		</g>
		<g>
			<path fill="#FFB819" d="M21.521,21.043c-0.364,0-0.73-0.14-1.002-0.419L15.4,15.515c-0.551-0.562-0.551-1.465,0-2.023
				c0.56-0.55,1.461-0.55,2.021,0l5.112,5.11c0.56,0.561,0.56,1.462,0,2.022C22.253,20.903,21.887,21.043,21.521,21.043z"/>
		</g>
		<g>
			<path fill="#FFB819" d="M36.862,61.764c-0.788,0-1.43-0.643-1.43-1.422v-5.949c0-0.787,0.641-1.43,1.43-1.43
				s1.432,0.643,1.432,1.43v5.949C38.294,61.121,37.651,61.764,36.862,61.764z"/>
		</g>
		<g>
			<path fill="#FFB819" d="M17.547,53.682c-0.357,0-0.724-0.14-1.004-0.42c-0.56-0.558-0.56-1.462,0-2.021l5.11-5.11
				c0.56-0.559,1.463-0.559,2.014,0c0.561,0.559,0.561,1.462,0,2.021l-5.11,5.11C18.276,53.542,17.912,53.682,17.547,53.682z"/>
		</g>
		<g>
			<path fill="#FFB819" d="M58.449,53.682c-0.365,0-0.73-0.14-1.012-0.42l-5.11-5.11c-0.56-0.56-0.56-1.462,0-2.021
				c0.56-0.559,1.463-0.559,2.022,0l5.11,5.11c0.56,0.56,0.56,1.462,0,2.021C59.18,53.542,58.815,53.682,58.449,53.682z"/>
		</g>
		<g>
			<path fill="#FFB819" d="M16.411,34.909H9.994c-0.788,0-1.43-0.634-1.43-1.422c0-0.789,0.641-1.431,1.43-1.431h6.417
				c0.787,0,1.431,0.642,1.431,1.431C17.842,34.275,17.199,34.909,16.411,34.909z"/>
		</g>
		<g>
			<path fill="#FFB819" d="M64.918,34.909h-7.604c-0.789,0-1.43-0.634-1.43-1.422c0-0.789,0.641-1.431,1.43-1.431h7.604
				c0.788,0,1.43,0.642,1.43,1.431C66.348,34.275,65.706,34.909,64.918,34.909z"/>
		</g>
	</g>
	<g>
		<path stroke="#FFFFFF" stroke-width="2" stroke-miterlimit="10" d="M66.885,75.011c-7.392,0-13.901-4.594-16.454-11.391
			c-2.397,1.173-5.022,1.784-7.698,1.784c-9.704,0-17.6-7.895-17.6-17.6s7.896-17.601,17.6-17.601c1.7,0,3.376,0.246,4.998,0.729
			c2.358-7.178,8.998-12.059,16.698-12.059c3.734,0,7.378,1.197,10.382,3.392c3.742-2.222,7.989-3.392,12.353-3.392
			c13.383,0,24.272,10.89,24.272,24.274c0,13.383-10.888,24.271-24.272,24.271c-1.787,0-3.593-0.208-5.39-0.623
			C78.56,71.892,72.96,75.011,66.885,75.011z"/>
	</g>
</g>
<g>
</g>
<g>
</g>
<g>
</g>
<g>
</g>
<g>
</g>
<g>
</g>
<g>
</g>
<g>
</g>
<g>
</g>
<g>
</g>
<g>
</g>
<g>
</g>
<g>
</g>
<g>
</g>
<g>
</g>
</svg>
