<?xml version="1.0" encoding="utf-8"?>
<!-- Generator: Adobe Illustrator 16.0.0, SVG Export Plug-In . SVG Version: 6.00 Build 0)  -->
<!DOCTYPE svg PUBLIC "-//W3C//DTD SVG 1.1//EN" "http://www.w3.org/Graphics/SVG/1.1/DTD/svg11.dtd">
<svg version="1.1" id="Layer_1" xmlns="http://www.w3.org/2000/svg" xmlns:xlink="http://www.w3.org/1999/xlink" x="0px" y="0px"
	 width="120px" height="80px" viewBox="0 0 120 80" enable-background="new 0 0 120 80" xml:space="preserve">
<g>
	<g>
		<path fill="#FFB819" d="M86.049,57.76c-15.196,0-27.56-12.365-27.56-27.562c0-14.259,10.689-26.051,24.869-27.427
			c0.908-0.093,1.766,0.413,2.141,1.238c0.375,0.828,0.186,1.801-0.477,2.428c-3.459,3.254-5.359,7.645-5.359,12.363
			c0,9.37,7.623,16.995,16.995,16.995c5.112,0,9.901-2.273,13.147-6.233c0.58-0.701,1.541-0.952,2.389-0.637
			c0.852,0.314,1.406,1.135,1.381,2.045C113.158,45.99,101.066,57.76,86.049,57.76z"/>
	</g>
	<g>
		<path fill="#131540" stroke="#FFFFFF" stroke-width="2" stroke-miterlimit="10" d="M50.975,77.24
			c7.392,0,13.901-4.594,16.455-11.391c2.396,1.174,5.021,1.785,7.697,1.785c9.704,0,17.6-7.895,17.6-17.6
			c0-9.706-7.896-17.601-17.6-17.601c-1.7,0-3.375,0.246-4.998,0.729c-2.357-7.178-8.998-12.059-16.698-12.059
			c-3.734,0-7.377,1.197-10.381,3.392c-3.742-2.222-7.989-3.392-12.353-3.392c-13.383,0-24.272,10.89-24.272,24.275
			c0,13.383,10.887,24.27,24.272,24.27c1.787,0,3.592-0.207,5.389-0.622C39.3,74.122,44.899,77.24,50.975,77.24z"/>
	</g>
</g>
<g>
</g>
<g>
</g>
<g>
</g>
<g>
</g>
<g>
</g>
<g>
</g>
<g>
</g>
<g>
</g>
<g>
</g>
<g>
</g>
<g>
</g>
<g>
</g>
<g>
</g>
<g>
</g>
<g>
</g>
</svg>
