<?xml version="1.0" encoding="utf-8"?>
<!-- Generator: Adobe Illustrator 16.0.0, SVG Export Plug-In . SVG Version: 6.00 Build 0)  -->
<!DOCTYPE svg PUBLIC "-//W3C//DTD SVG 1.1//EN" "http://www.w3.org/Graphics/SVG/1.1/DTD/svg11.dtd">
<svg version="1.1" id="Layer_1" xmlns="http://www.w3.org/2000/svg" xmlns:xlink="http://www.w3.org/1999/xlink" x="0px" y="0px"
	 width="120px" height="80px" viewBox="0 0 120 80" enable-background="new 0 0 120 80" xml:space="preserve">
<g>
	<path fill="#131540" stroke="#FFFFFF" stroke-width="2" stroke-miterlimit="10" d="M58.131,77.5
		c-9.875,0-18.573-6.137-21.983-15.219c-3.202,1.568-6.71,2.385-10.285,2.385c-12.965,0-23.514-10.547-23.514-23.514
		s10.549-23.515,23.514-23.515c2.272,0,4.51,0.329,6.678,0.974C35.69,9.021,44.562,2.5,54.85,2.5c4.989,0,9.856,1.6,13.87,4.531
		C73.719,4.063,79.394,2.5,85.223,2.5c17.88,0,32.429,14.549,32.429,32.431c0,17.879-14.546,32.426-32.429,32.426
		c-2.387,0-4.8-0.279-7.199-0.832C73.729,73.333,66.248,77.5,58.131,77.5z"/>
</g>
<g>
</g>
<g>
</g>
<g>
</g>
<g>
</g>
<g>
</g>
<g>
</g>
<g>
</g>
<g>
</g>
<g>
</g>
<g>
</g>
<g>
</g>
<g>
</g>
<g>
</g>
<g>
</g>
<g>
</g>
</svg>
