<?xml version="1.0" encoding="utf-8"?>
<!-- Generator: Adobe Illustrator 16.0.0, SVG Export Plug-In . SVG Version: 6.00 Build 0)  -->
<!DOCTYPE svg PUBLIC "-//W3C//DTD SVG 1.1//EN" "http://www.w3.org/Graphics/SVG/1.1/DTD/svg11.dtd">
<svg version="1.1" id="Layer_1" xmlns="http://www.w3.org/2000/svg" xmlns:xlink="http://www.w3.org/1999/xlink" x="0px" y="0px"
	 width="120px" height="80px" viewBox="0 0 120 80" enable-background="new 0 0 120 80" xml:space="preserve">
<g>
	<g>
		<path stroke="#FFFFFF" stroke-width="2" stroke-miterlimit="10" d="M65.572,63.324c-8.01,0-15.062-4.978-17.828-12.342
			c-2.597,1.271-5.443,1.934-8.342,1.934c-10.514,0-19.068-8.554-19.068-19.069c0-10.516,8.555-19.07,19.068-19.07
			c1.844,0,3.657,0.267,5.415,0.79C47.373,7.788,54.566,2.5,62.911,2.5c4.046,0,7.994,1.297,11.247,3.675
			C78.215,3.768,82.816,2.5,87.542,2.5c14.5,0,26.301,11.799,26.301,26.302c0,14.5-11.798,26.297-26.301,26.297
			c-1.935,0-3.893-0.227-5.839-0.675C78.22,59.944,72.153,63.324,65.572,63.324z"/>
	</g>
	<g>
		<path stroke="#FFFFFF" stroke-width="2" stroke-miterlimit="10" d="M51.396,77.5c-8.01,0-15.062-4.978-17.828-12.342
			c-2.597,1.271-5.443,1.935-8.343,1.935c-10.513,0-19.068-8.555-19.068-19.07s8.556-19.07,19.068-19.07
			c1.845,0,3.658,0.267,5.416,0.791c2.556-7.779,9.749-13.067,18.094-13.067c4.045,0,7.993,1.297,11.247,3.676
			c4.056-2.407,8.657-3.676,13.384-3.676c14.5,0,26.301,11.799,26.301,26.302c0,14.5-11.798,26.297-26.301,26.297
			c-1.936,0-3.893-0.227-5.839-0.675C64.044,74.12,57.978,77.5,51.396,77.5z"/>
	</g>
</g>
<g>
</g>
<g>
</g>
<g>
</g>
<g>
</g>
<g>
</g>
<g>
</g>
<g>
</g>
<g>
</g>
<g>
</g>
<g>
</g>
<g>
</g>
<g>
</g>
<g>
</g>
<g>
</g>
<g>
</g>
</svg>
