<?xml version="1.0" encoding="utf-8"?>
<!-- Generator: Adobe Illustrator 16.0.0, SVG Export Plug-In . SVG Version: 6.00 Build 0)  -->
<!DOCTYPE svg PUBLIC "-//W3C//DTD SVG 1.1//EN" "http://www.w3.org/Graphics/SVG/1.1/DTD/svg11.dtd">
<svg version="1.1" id="Layer_1" xmlns="http://www.w3.org/2000/svg" xmlns:xlink="http://www.w3.org/1999/xlink" x="0px" y="0px"
	 width="120px" height="80px" viewBox="0 0 120 80" enable-background="new 0 0 120 80" xml:space="preserve">
<g>
	<path fill="#FFB819" stroke="#FFFFFF" stroke-miterlimit="10" d="M62.854,72.935c0,2.521-2.045,4.565-4.565,4.565
		c-2.522,0-4.566-2.044-4.566-4.565c0-2.523,4.566-9.33,4.566-9.33S62.854,70.411,62.854,72.935z"/>
	<g>
		<path stroke="#FFFFFF" stroke-width="2" stroke-miterlimit="10" d="M58.554,60.511c-7.637,0-14.365-4.749-17.004-11.771
			c-2.476,1.212-5.188,1.844-7.954,1.844c-10.029,0-18.189-8.158-18.189-18.188c0-10.03,8.16-18.188,18.189-18.188
			c1.757,0,3.489,0.252,5.164,0.751C41.196,7.542,48.059,2.5,56.017,2.5c3.859,0,7.624,1.235,10.727,3.503
			C70.612,3.708,75.001,2.5,79.512,2.5c13.829,0,25.082,11.251,25.082,25.082c0,13.83-11.253,25.085-25.082,25.085
			c-1.847,0-3.716-0.217-5.57-0.645C70.62,57.288,64.834,60.511,58.554,60.511z"/>
	</g>
</g>
<g>
</g>
<g>
</g>
<g>
</g>
<g>
</g>
<g>
</g>
<g>
</g>
<g>
</g>
<g>
</g>
<g>
</g>
<g>
</g>
<g>
</g>
<g>
</g>
<g>
</g>
<g>
</g>
<g>
</g>
</svg>
