<?xml version="1.0" encoding="utf-8"?>
<!-- Generator: Adobe Illustrator 16.0.0, SVG Export Plug-In . SVG Version: 6.00 Build 0)  -->
<!DOCTYPE svg PUBLIC "-//W3C//DTD SVG 1.1//EN" "http://www.w3.org/Graphics/SVG/1.1/DTD/svg11.dtd">
<svg version="1.1" id="Layer_1" xmlns="http://www.w3.org/2000/svg" xmlns:xlink="http://www.w3.org/1999/xlink" x="0px" y="0px"
	 width="120px" height="80px" viewBox="0 0 120 80" enable-background="new 0 0 120 80" xml:space="preserve">
<g>
	<path fill="#131540" stroke="#FFFFFF" stroke-miterlimit="10" d="M43.168,61.361c0,2.204-1.786,3.99-3.991,3.99
		c-2.204,0-3.99-1.786-3.99-3.99s3.99-8.156,3.99-8.156S43.168,59.157,43.168,61.361z"/>
	<path fill="#131540" stroke="#FFFFFF" stroke-miterlimit="10" d="M60.348,73.508c0,2.204-1.787,3.992-3.991,3.992
		c-2.205,0-3.99-1.788-3.99-3.992s3.99-8.156,3.99-8.156S60.348,71.304,60.348,73.508z"/>
	<path fill="#131540" stroke="#FFFFFF" stroke-miterlimit="10" d="M76.661,69.344c0,2.205-1.787,3.99-3.99,3.99
		c-2.205,0-3.992-1.785-3.992-3.99c0-2.204,3.992-8.156,3.992-8.156S76.661,67.14,76.661,69.344z"/>
	<g>
		<path fill="#131540" stroke="#FFFFFF" stroke-width="2" stroke-miterlimit="10" d="M58.736,53.205
			c-6.675,0-12.557-4.15-14.862-10.289c-2.165,1.059-4.535,1.611-6.952,1.611c-8.767,0-15.898-7.131-15.898-15.896
			c0-8.767,7.131-15.896,15.898-15.896c1.535,0,3.048,0.221,4.514,0.656C43.564,6.908,49.562,2.5,56.519,2.5
			c3.373,0,6.663,1.08,9.375,3.062c3.382-2.006,7.22-3.062,11.16-3.062c12.089,0,21.923,9.836,21.923,21.924
			c0,12.09-9.834,21.924-21.923,21.924c-1.613,0-3.245-0.189-4.868-0.562C69.282,50.387,64.225,53.205,58.736,53.205z"/>
	</g>
</g>
<g>
</g>
<g>
</g>
<g>
</g>
<g>
</g>
<g>
</g>
<g>
</g>
<g>
</g>
<g>
</g>
<g>
</g>
<g>
</g>
<g>
</g>
<g>
</g>
<g>
</g>
<g>
</g>
<g>
</g>
</svg>
