<?xml version="1.0" encoding="utf-8"?>
<!-- Generator: Adobe Illustrator 16.0.0, SVG Export Plug-In . SVG Version: 6.00 Build 0)  -->
<!DOCTYPE svg PUBLIC "-//W3C//DTD SVG 1.1//EN" "http://www.w3.org/Graphics/SVG/1.1/DTD/svg11.dtd">
<svg version="1.1" id="Layer_1" xmlns="http://www.w3.org/2000/svg" xmlns:xlink="http://www.w3.org/1999/xlink" x="0px" y="0px"
	 width="120px" height="80px" viewBox="0 0 120 80" enable-background="new 0 0 120 80" xml:space="preserve">
<g>
	<path fill="#FFB819" d="M77.741,2.5c-4.102,0-8.092,1.098-11.609,3.184C63.311,3.625,59.887,2.5,56.379,2.5
		c-7.233,0-13.474,4.584-15.69,11.33c-1.524-0.453-3.097-0.686-4.696-0.686c-9.116,0-16.535,7.417-16.535,16.537
		c0,5.737,2.937,10.794,7.382,13.761c2.623,1.751,5.771,2.776,9.153,2.776c2.514,0,4.981-0.576,7.233-1.677
		c0.131,0.347,0.277,0.686,0.431,1.022c1.816,3.998,5.134,7.064,9.163,8.597c0.247,0.094,0.501,0.167,0.751,0.247l-4.221,7.206
		l4.693,3.25L49.35,77.5l13.357-11.824l-6.679-4.062l6.679-6.901l-0.002-0.011c3.142-0.787,5.981-2.47,8.169-4.867
		c0.655-0.716,1.272-1.475,1.801-2.31c0.394,0.091,0.792,0.136,1.187,0.204c1.294,0.228,2.59,0.381,3.877,0.381
		c12.574,0,22.805-10.229,22.805-22.806C100.543,12.729,90.315,2.5,77.741,2.5z"/>
	<path stroke="#FFFFFF" stroke-width="2" stroke-miterlimit="10" d="M62.707,54.713l-0.002-0.011
		c3.142-0.787,5.981-2.47,8.169-4.867c0.655-0.716,1.272-1.475,1.801-2.31c0.394,0.091,0.792,0.136,1.187,0.204
		c1.294,0.228,2.59,0.381,3.877,0.381c12.574,0,22.805-10.229,22.805-22.806c0-12.575-10.228-22.805-22.802-22.805
		c-4.102,0-8.092,1.098-11.609,3.184C63.311,3.625,59.887,2.5,56.379,2.5c-7.233,0-13.474,4.584-15.69,11.33
		c-1.524-0.453-3.097-0.686-4.696-0.686c-9.116,0-16.535,7.417-16.535,16.537c0,5.737,2.937,10.794,7.382,13.761
		c2.623,1.751,5.771,2.776,9.153,2.776c2.514,0,4.981-0.576,7.233-1.677c0.131,0.347,0.277,0.686,0.431,1.022
		c1.816,3.998,5.134,7.064,9.163,8.597c0.247,0.094,0.501,0.167,0.751,0.247L62.707,54.713z"/>
</g>
<g>
</g>
<g>
</g>
<g>
</g>
<g>
</g>
<g>
</g>
<g>
</g>
<g>
</g>
<g>
</g>
<g>
</g>
<g>
</g>
<g>
</g>
<g>
</g>
<g>
</g>
<g>
</g>
<g>
</g>
</svg>
