<?xml version="1.0" encoding="utf-8"?>
<!-- Generator: Adobe Illustrator 16.0.0, SVG Export Plug-In . SVG Version: 6.00 Build 0)  -->
<!DOCTYPE svg PUBLIC "-//W3C//DTD SVG 1.1//EN" "http://www.w3.org/Graphics/SVG/1.1/DTD/svg11.dtd">
<svg version="1.1" id="Layer_1" xmlns="http://www.w3.org/2000/svg" xmlns:xlink="http://www.w3.org/1999/xlink" x="0px" y="0px"
	 width="120px" height="80px" viewBox="0 0 120 80" enable-background="new 0 0 120 80" xml:space="preserve">
<g>
	<path fill="#131540" stroke="#FFFFFF" stroke-miterlimit="10" d="M66.386,71.139l-1.995-1.358c0.429-0.798,0.676-1.679,0.676-2.614
		c0-0.902-0.228-1.756-0.631-2.533l2.038-1.454c0.843-0.603,0.959-1.679,0.258-2.401c-0.703-0.723-1.957-0.822-2.8-0.219
		L61.89,62.01c-0.64-0.375-1.355-0.664-2.125-0.851v-2.286c0-0.941-0.889-1.705-1.988-1.705c-1.097,0-1.987,0.762-1.987,1.705v2.286
		c-0.731,0.179-1.419,0.45-2.04,0.803l-2.108-1.435c-0.859-0.587-2.11-0.463-2.795,0.274c-0.68,0.737-0.538,1.811,0.322,2.396
		l1.997,1.357c-0.429,0.796-0.678,1.68-0.678,2.61c0,0.734,0.156,1.436,0.427,2.087l-2.116,1.512
		c-0.841,0.599-0.959,1.673-0.256,2.397c0.394,0.407,0.96,0.615,1.531,0.615c0.445,0,0.897-0.13,1.27-0.394l1.883-1.343
		c0.749,0.514,1.618,0.903,2.566,1.135v2.288c0,0.94,0.888,1.704,1.987,1.704c1.097,0,1.987-0.764,1.987-1.704v-2.288
		c0.732-0.178,1.419-0.448,2.04-0.804l2.108,1.438c0.367,0.248,0.803,0.368,1.236,0.368c0.585,0,1.166-0.22,1.559-0.644
		C67.39,72.798,67.246,71.724,66.386,71.139z M55.232,68.965c-0.073-0.132-0.156-0.261-0.272-0.381
		c-0.023-0.024-0.057-0.044-0.08-0.068c-0.256-0.402-0.415-0.855-0.415-1.347c0-0.642,0.261-1.23,0.683-1.708
		c0.085-0.065,0.168-0.129,0.241-0.206c0.036-0.039,0.062-0.085,0.095-0.128c0.595-0.492,1.402-0.798,2.293-0.798
		c1.829,0,3.314,1.273,3.314,2.84c0,0.626-0.244,1.2-0.645,1.669c-0.102,0.073-0.194,0.152-0.279,0.247
		c-0.035,0.038-0.062,0.083-0.095,0.126c-0.595,0.491-1.402,0.799-2.296,0.799C56.751,70.012,55.841,69.598,55.232,68.965z"/>
	<path fill="#131540" stroke="#FFFFFF" stroke-miterlimit="10" d="M87.536,64.502l-1.211-0.815c0.261-0.479,0.41-1.008,0.41-1.569
		c0-0.54-0.14-1.055-0.384-1.519l1.236-0.873c0.515-0.362,0.583-1.006,0.159-1.44c-0.429-0.434-1.188-0.493-1.701-0.132
		l-1.239,0.872c-0.388-0.226-0.824-0.398-1.291-0.512v-1.371c0-0.564-0.537-1.023-1.206-1.023c-0.665,0-1.205,0.459-1.205,1.023
		v1.371c-0.445,0.107-0.86,0.271-1.239,0.482l-1.281-0.861c-0.523-0.352-1.282-0.275-1.696,0.165
		c-0.412,0.442-0.327,1.086,0.194,1.437l1.213,0.814c-0.261,0.479-0.41,1.006-0.41,1.566c0,0.438,0.093,0.86,0.258,1.254
		l-1.283,0.904c-0.515,0.361-0.583,1.005-0.156,1.438c0.236,0.245,0.58,0.37,0.928,0.37c0.272,0,0.545-0.077,0.772-0.237
		l1.143-0.803c0.454,0.309,0.982,0.541,1.556,0.68v1.373c0,0.564,0.54,1.023,1.208,1.023c0.666,0,1.206-0.459,1.206-1.023v-1.373
		c0.445-0.108,0.862-0.271,1.239-0.482l1.281,0.861c0.223,0.149,0.486,0.222,0.749,0.222c0.355,0,0.708-0.133,0.947-0.386
		C88.145,65.493,88.06,64.849,87.536,64.502z M80.763,63.194c-0.042-0.081-0.095-0.157-0.163-0.229
		c-0.017-0.015-0.035-0.026-0.052-0.042c-0.156-0.241-0.249-0.514-0.249-0.808c0-0.386,0.156-0.738,0.412-1.025
		c0.052-0.036,0.104-0.074,0.146-0.122c0.024-0.025,0.038-0.051,0.06-0.076c0.362-0.295,0.851-0.48,1.391-0.48
		c1.108,0,2.012,0.765,2.012,1.704c0,0.375-0.147,0.72-0.392,1.004c-0.062,0.042-0.118,0.092-0.17,0.146
		c-0.021,0.024-0.038,0.051-0.058,0.076c-0.362,0.296-0.853,0.479-1.393,0.479C81.685,63.821,81.133,63.574,80.763,63.194z"/>
	<path fill="#131540" stroke="#FFFFFF" stroke-miterlimit="10" d="M40.694,60.526l-1.211-0.814c0.261-0.478,0.41-1.007,0.41-1.566
		c0-0.543-0.14-1.056-0.384-1.522l1.236-0.872c0.514-0.362,0.583-1.008,0.156-1.441c-0.424-0.434-1.187-0.491-1.698-0.132
		l-1.239,0.873c-0.391-0.229-0.827-0.399-1.291-0.51v-1.373c0-0.566-0.54-1.023-1.206-1.023c-0.668,0-1.208,0.457-1.208,1.023v1.373
		c-0.443,0.106-0.86,0.269-1.239,0.481l-1.279-0.862c-0.525-0.35-1.284-0.277-1.696,0.164c-0.414,0.443-0.326,1.087,0.194,1.438
		l1.213,0.814c-0.263,0.478-0.412,1.008-0.412,1.567c0,0.44,0.095,0.859,0.259,1.252l-1.284,0.905
		c-0.512,0.361-0.583,1.006-0.156,1.439c0.236,0.243,0.58,0.367,0.929,0.367c0.272,0,0.547-0.076,0.772-0.234l1.142-0.807
		c0.455,0.311,0.982,0.543,1.559,0.682v1.372c0,0.565,0.538,1.024,1.206,1.024s1.205-0.459,1.205-1.024v-1.372
		c0.446-0.107,0.863-0.269,1.239-0.481l1.282,0.86c0.223,0.151,0.487,0.222,0.751,0.222c0.354,0,0.708-0.132,0.945-0.387
		C41.303,61.521,41.215,60.879,40.694,60.526z M33.921,59.221c-0.045-0.078-0.095-0.154-0.163-0.227
		c-0.02-0.017-0.036-0.027-0.053-0.042c-0.153-0.242-0.251-0.513-0.251-0.807c0-0.388,0.159-0.741,0.415-1.024
		c0.052-0.04,0.104-0.078,0.146-0.126c0.023-0.022,0.038-0.05,0.06-0.075c0.362-0.296,0.851-0.479,1.391-0.479
		c1.108,0,2.011,0.763,2.011,1.704c0,0.376-0.146,0.718-0.391,1.001c-0.062,0.043-0.118,0.093-0.171,0.149
		c-0.021,0.022-0.037,0.048-0.057,0.074c-0.362,0.296-0.853,0.481-1.393,0.481C34.843,59.85,34.291,59.603,33.921,59.221z"/>
	<g>
		<path fill="#131540" stroke="#FFFFFF" stroke-width="2" stroke-miterlimit="10" d="M58.7,54.874
			c-6.851,0-12.887-4.262-15.254-10.56c-2.22,1.086-4.654,1.653-7.135,1.653c-8.998,0-16.315-7.319-16.315-16.316
			s7.317-16.316,16.315-16.316c1.577,0,3.129,0.229,4.634,0.677c2.184-6.657,8.341-11.18,15.479-11.18
			c3.464,0,6.842,1.109,9.625,3.144c3.469-2.062,7.406-3.144,11.452-3.144c12.409,0,22.503,10.094,22.503,22.5
			c0,12.408-10.094,22.504-22.503,22.504c-1.653,0-3.331-0.194-4.996-0.578C69.524,51.982,64.337,54.874,58.7,54.874z"/>
	</g>
</g>
<g>
</g>
<g>
</g>
<g>
</g>
<g>
</g>
<g>
</g>
<g>
</g>
<g>
</g>
<g>
</g>
<g>
</g>
<g>
</g>
<g>
</g>
<g>
</g>
<g>
</g>
<g>
</g>
<g>
</g>
</svg>
